<?xml version="1.0" standalone="no"?>
<!DOCTYPE svg PUBLIC "-//W3C//DTD SVG 20010904//EN"
 "http://www.w3.org/TR/2001/REC-SVG-20010904/DTD/svg10.dtd">
<svg version="1.0" xmlns="http://www.w3.org/2000/svg"
 width="32.000000pt" height="32.000000pt" viewBox="0 0 32.000000 32.000000"
 preserveAspectRatio="xMidYMid meet">

<g transform="translate(0.000000,32.000000) scale(0.100000,-0.100000)"
fill="#000000" stroke="none">
<path d="M25 265 c-50 -49 -15 -135 55 -135 38 0 37 23 -1 28 -34 5 -49 20
-49 51 0 33 17 51 45 51 35 0 55 -31 55 -83 0 -26 5 -47 10 -47 6 0 10 26 10
58 0 48 -4 62 -23 80 -31 29 -72 28 -102 -3z"/>
<path d="M167 173 c2 -92 4 -99 28 -121 42 -35 86 -26 113 25 18 34 14 62 -13
89 -19 19 -34 24 -58 22 -47 -4 -48 -33 -1 -33 43 0 60 -20 50 -58 -8 -35 -49
-46 -76 -22 -17 15 -20 31 -20 107 0 64 -3 88 -13 88 -9 0 -12 -25 -10 -97z"/>
</g>
</svg>
